<?xml version="1.0" encoding="UTF-8"?>
<svg version="1.1" viewBox="0 0 1600 1600" width="1280" height="1280" xmlns="http://www.w3.org/2000/svg">
<path transform="translate(821,395)" d="m0 0c0.755 0.129 1.51 0.257 2.29 0.39 24 4.32 47.4 14.9 66.7 29.6-3.21 0-4.41-0.527-7.22-1.94-0.84-0.416-1.68-0.831-2.55-1.26-0.903-0.449-1.81-0.899-2.73-1.36-37.3-18.1-84.9-27.8-126-15.4-1.04 0.311-2.09 0.623-3.16 0.944-28.8 8.75-53.8 21.3-75.8 42.1-0.589 0.552-1.18 1.1-1.78 1.67-23.6 22.4-39.9 49.9-48.2 81.3 0.789 0.0198 1.58 0.0396 2.39 0.0601 30.9 0.815 30.9 0.815 43.6 2.94 0.874 0.144 1.75 0.288 2.65 0.436 17.2 2.92 33.7 7.68 50.3 12.9 2.85 0.896 5.7 1.78 8.55 2.67 13.2 4.11 26.4 8.28 39.5 12.5 32 10.3 63.4 19.3 97 22.4 0.935 0.0943 1.87 0.189 2.83 0.286 8.26 0.775 16.5 0.955 24.8 0.964 0.726 0.00134 1.45 0.00268 2.2 0.00406 47.6-0.0187 93.1-10.5 138-26.6 2.42-0.68 2.42-0.68 4.42 0.32 0.961 2.88 1.16 4.85 1.24 7.85 0.0264 0.985 0.0528 1.97 0.08 2.98 0.023 1.06 0.046 2.13 0.0697 3.22 0.0255 1.09 0.051 2.19 0.0773 3.31 0.052 2.31 0.101 4.63 0.148 6.95 0.0745 3.54 0.165 7.08 0.257 10.6 0.0485 2.25 0.0961 4.5 0.143 6.75 0.0436 1.59 0.0436 1.59 0.0881 3.21 0.0169 0.991 0.0339 1.98 0.0513 3 0.0192 0.868 0.0384 1.74 0.0582 2.63-0.241 2.86-0.926 4.92-2.21 7.48-10 8.09-26 9.1-38.4 11.1-0.782 0.129-1.56 0.258-2.37 0.39-69.5 11.4-134-4.08-197-32.5-1.6-0.715-1.6-0.715-3.23-1.44-4.8-2.15-9.6-4.31-14.4-6.47-29.8-13.4-29.8-13.4-60.2-25.3-1.95-0.707-3.9-1.44-5.84-2.17-32.6-11.7-67-13.3-101-12.6-0.776 6.21-1.17 12.3-1.2 18.5-0.0057 0.892-0.0114 1.78-0.0173 2.7-0.00939 1.88-0.016 3.76-0.0198 5.65-0.0096 2.8-0.0406 5.61-0.0723 8.41-0.265 45.5 16.5 88.1 47.4 122 1.58 1.73 3.06 3.49 4.52 5.33 3.18 3.67 6.71 6.71 10.4 9.81 0.73 0.617 1.46 1.23 2.21 1.87 7.21 5.96 14.9 11.1 22.8 16.1 0.877 0.568 1.75 1.14 2.66 1.72 37.8 23.6 86.3 29.6 129 20.2 19.8-4.73 40.4-11.6 57.6-22.7 0.761-0.419 1.52-0.838 2.3-1.27 0.66 0.33 1.32 0.66 2 1-40 29.1-92.5 42.7-142 35.8-36.3-5.9-70.6-20.4-98.4-44.8-0.871-0.75-1.74-1.5-2.64-2.27-4.5-3.95-8.66-7.99-12.5-12.6-2.19-2.56-4.48-5-6.78-7.46-9.06-9.99-15.7-20.9-22.1-32.7-0.62-1.14-1.24-2.29-1.88-3.47-7-13.4-11.8-27.4-15.4-42-0.234-0.959-0.468-1.92-0.709-2.91-0.74-3.19-1.41-6.38-2.04-9.59-0.202-1.01-0.202-1.01-0.407-2.04-2.54-13.1-2.96-25.8-2.78-39.1 0.0151-1.94 0.0288-3.87 0.041-5.81 0.0325-4.67 0.084-9.33 0.146-14-5.65-0.0762-10.4 0.316-15.8 2-0.721 0.219-1.44 0.437-2.19 0.662-25.2 7.93-47 21.4-66.9 38.7-0.635 0.553-1.27 1.11-1.92 1.68-1.22 1.07-2.44 2.15-3.65 3.24-4.2 3.71-4.2 3.71-7.53 3.71 26-31.7 62.2-58.6 103-67 0.124-0.55 0.247-1.1 0.375-1.67 8.25-33.3 26.1-62.7 49.6-87.3 0.859-0.9 1.72-1.8 2.6-2.73 5.15-5.28 10.4-9.94 16.4-14.3 0.565-0.425 1.13-0.85 1.71-1.29 45.1-33.9 101-45.3 156-35.7z" fill="#000204"/>
<path transform="translate(173,839)" d="m0 0c17.5-0.0469 35-0.0821 52.5-0.104 8.13-0.0103 16.3-0.0243 24.4-0.0473 7.09-0.02 14.2-0.0329 21.3-0.0373 3.75-0.00259 7.5-0.00863 11.3-0.0233 3.54-0.0137 7.08-0.0177 10.6-0.0148 1.9-8e-4 3.8-0.0115 5.69-0.0226 14 0.0332 32.1 0.857 42.7 11.3 6.76 8.49 6.77 18.3 6.77 28.7 0.0122 1.03 0.0245 2.05 0.0371 3.11 0.0365 19.3 0.0365 19.3-6.22 26.2-2.28 1.56-4.52 2.76-7 4 0.73 3.33 0.73 3.33 4.25 4.75 5.52 3 8.08 7 9.86 13 1.32 6.42 1.26 12.9 1.26 19.5 0.00437 2.19 0.0408 4.38 0.0786 6.57 0.0715 8.85-0.193 18-6 25.2-4.5 4.51-10.5 6.22-16.4 8.07-0.99 0.33-1.98 0.66-3 1-9.05 1.07-18.1 1.14-27.2 1.11-1.37-2.83e-4 -2.74-1.22e-4 -4.11 4.43e-4 -3.68 2.84e-4 -7.36-0.00555-11-0.0126-3.86-0.0063-7.72-0.00684-11.6-0.00803-7.29-0.00309-14.6-0.0113-21.9-0.0213-8.31-0.0112-16.6-0.0167-24.9-0.0217-17.1-0.0104-34.2-0.028-51.2-0.0503-1.15-4.14-1.14-8.12-1.13-12.4-0.00132-0.888-0.00264-1.78-4e-3 -2.69-0.00197-3.06 0.00459-6.11 0.0118-9.17 8.86e-4 -1.07 0.00177-2.13 0.00269-3.23 0.0392-41.5 0.644-83 1.12-125zm32 28c-0.0247 4.97-0.0428 9.93-0.0549 14.9-0.00504 1.69-0.0119 3.38-0.0205 5.07-0.0121 2.43-0.0178 4.85-0.0222 7.28-0.00516 0.76-0.0103 1.52-0.0156 2.3-1.96e-4 1.82 0.0513 3.63 0.113 5.45 1.89 1.89 4.65 1.13 7.17 1.15 0.888-4.53e-4 1.78-9.06e-4 2.69-0.00137 0.93 0.00336 1.86 0.00672 2.82 0.0102 3.1 0.00955 6.19 0.0115 9.29 0.0125 2.15 0.00321 4.3 0.00658 6.45 0.0101 4.52 6e-3 9.04 0.00784 13.6 0.00725 5.77-1.01e-4 11.5 0.0135 17.3 0.0308 4.45 0.0112 8.89 0.0131 13.3 0.0126 2.13 0.00118 4.25 0.00558 6.38 0.0133 2.99 0.00987 5.98 0.00689 8.97 8.95e-4 0.869 0.00562 1.74 0.0112 2.63 0.017 10.8 0.0732 10.8 0.0732 20-4.7 2.57-4.57 2.68-8.69 2.75-13.8 0.029-0.739 0.058-1.48 0.0879-2.24 0.0648-5.65-1.14-8.88-4.4-13.5-8.84-5.9-25-3.14-35.3-3.13-2.06-6.74e-4 -4.13-0.00165-6.19-0.0029-4.3-0.00147-8.61 6.48e-4 -12.9 0.00534-5.52 0.00573-11 0.00239-16.6-0.00357-4.25-0.0036-8.5-0.00247-12.8 1.28e-4 -2.04 6.68e-4 -4.08-1.55e-4 -6.12-0.00248-2.84-0.00253-5.67 0.00131-8.51 0.0069-1.27-0.00304-1.27-0.00304-2.56-0.00613-4.15-0.0937-4.15-0.0937-8.03 1.14zm0 60c-0.0886 2.74-0.115 5.45-0.0977 8.19 0.00141 0.82 0.00283 1.64 0.00429 2.48 0.00562 2.63 0.0182 5.26 0.0309 7.89 0.00501 1.78 0.00958 3.56 0.0137 5.33 0.011 4.37 0.0283 8.74 0.0488 13.1 7.93 1.09 15.8 1.15 23.8 1.13 1.44 6.76e-4 2.89 0.00165 4.33 0.0029 3.03 0.00147 6.06-6.48e-4 9.09-0.00534 3.79-0.0056 7.59-0.00236 11.4 0.00341 14.7 0.0194 29.5-0.0544 44.2-0.454 1.14-0.022 2.28-0.044 3.46-0.0666 5.96-0.196 10.5-0.665 15.8-3.61 2.85-4.21 2.3-9.46 2.25-14.4 0.00773-0.825 0.0155-1.65 0.0234-2.5-0.018-5.68-0.403-11-3.4-16-5.41-3.25-13.8-2.27-19.9-2.25-0.975-0.00175-1.95-0.0035-2.95-0.00531-3.2-0.00438-6.4-0.0015-9.59 0.00189-2.23-6.74e-4 -4.46-0.00164-6.68-0.0029-4.66-0.00147-9.31 6.59e-4 -14 0.00534-5.98 0.00572-12 0.0024-17.9-0.00357-4.59-0.0036-9.19-0.00247-13.8 1.28e-4 -2.21 6.69e-4 -4.41-1.58e-4 -6.62-0.00248-3.07-0.00252-6.14 0.00131-9.21 0.0069-0.919-0.00202-1.84-0.00405-2.78-0.00613-4.01-0.392-4.01-0.392-7.38 1.14z" fill="#000204"/>
<path transform="translate(657 839)" d="m0 0c2.21-0.00323 4.43-0.00659 6.64-0.0101 4.6-0.00593 9.2-0.00785 13.8-0.00725 5.85 1.02e-4 11.7-0.0136 17.5-0.0308 4.56-0.0112 9.12-0.0131 13.7-0.0126 2.15-0.00117 4.31-0.00551 6.46-0.0133 48.1-0.158 48.1-0.158 64 13.2 10.2 10.3 10.2 24 10.2 37.6 0.0309 1.79 0.0309 1.79 0.0625 3.62 0.0534 12.3-1.38 23.9-9.77 33.4-7.03 6.77-16.3 9.38-25.7 10.9-0.776 0.128-1.55 0.256-2.35 0.388-9.16 1.42-18.4 1.84-27.6 2.23-1.75 0.0817-3.5 0.164-5.25 0.248-4.21 0.199-8.42 0.386-12.6 0.564 2.84 3.07 5.6 5.1 9.26 7.1 1.03 0.567 2.06 1.13 3.11 1.72 1.09 0.595 2.19 1.19 3.31 1.8 2.28 1.26 4.57 2.52 6.85 3.79 1.11 0.615 2.23 1.23 3.37 1.86 3.94 2.2 7.84 4.48 11.7 6.79 6.65 3.96 13.4 7.77 20.1 11.6 18.2 10.2 18.2 10.2 24.2 14.4v1c-7.58 0.205-15.2 0.344-22.7 0.439-2.57 0.04-5.14 0.0944-7.72 0.164-26.9 0.709-26.9 0.709-38.6-8.6-1.4-0.903-2.82-1.79-4.24-2.66-1.21-0.798-2.42-1.6-3.63-2.4-14.1-9.23-28.4-18.2-42.9-26.8-8.19-4.88-16.3-9.87-24.3-15.2v55c-5.42 0.0206-10.8 0.0412-16.4 0.0625-1.71 0.0091-3.43 0.0182-5.19 0.0276-1.35 0.00292-2.7 0.00547-4.05 0.00757-1.06 0.00767-1.06 0.00767-2.14 0.0155-1.72 3.11e-4 -3.45-0.0509-5.17-0.113-1.78-1.78-1.13-4.37-1.13-6.77-0.00282-1.25-0.00564-2.51-0.00854-3.8 0.00194-1.4 0.00399-2.8 0.00613-4.21-0.00135-1.47-0.00313-2.93-0.00531-4.4-0.00457-3.99-0.00278-7.99 3.79e-4 -12 0.00252-4.17 1.86e-4 -8.34-0.00139-12.5-0.00182-7 5.85e-4 -14 0.00534-21 0.00544-8.11 0.00368-16.2-0.00183-24.3-0.00453-6.95-0.00518-13.9-0.00256-20.9 0.00156-4.16 0.00176-8.31-0.00154-12.5-0.00288-3.91-9.03e-4 -7.81 0.00489-11.7 0.00133-1.44 9.33e-4 -2.88-0.00126-4.31-0.00271-1.95 0.00128-3.91 0.00568-5.86 3.77e-4 -1.1 7.54e-4 -2.19 0.00114-3.32 0.126-2.45 0.126-2.45 1.13-3.45 1.35-0.156 2.71-0.247 4.07-0.311 0.866-0.0411 1.73-0.0822 2.62-0.125 0.949-0.0386 1.9-0.0772 2.88-0.117 1.48-0.0631 1.48-0.0631 2.99-0.127 11.1-0.437 22.2-0.485 33.3-0.489zm-12.9 28.2c-0.173 3.12-0.284 6.21-0.352 9.33-0.0232 0.941-0.0463 1.88-0.0702 2.85-0.0477 2-0.093 3.99-0.136 5.99-0.0668 3.05-0.145 6.1-0.224 9.15-0.0449 1.94-0.0892 3.88-0.133 5.82-0.0239 0.912-0.0478 1.82-0.0724 2.76-0.0169 0.857-0.0337 1.71-0.0511 2.6-0.017 0.75-0.0339 1.5-0.0514 2.27 0.0996 2.49 0.544 4.8 1.09 7.23 11.8 0.0465 23.5 0.082 35.3 0.104 5.47 0.0104 10.9 0.0245 16.4 0.0473 5.28 0.0219 10.6 0.0337 15.9 0.0389 2.01 0.00367 4.01 0.0108 6.02 0.0217 18 0.955 18 0.955 34.5-4.27 4.29-6.73 5.38-13.6 5.31-21.5 0.02-0.799 0.04-1.6 0.0605-2.42-0.00535-6.56-1.64-12.2-6.37-16.9-5.9-3.13-11.3-3.43-17.8-3.46-0.955-0.0117-1.91-0.0233-2.89-0.0353-3.14-0.0359-6.29-0.0578-9.43-0.0792-2.19-0.0213-4.37-0.0432-6.56-0.0659-4.57-0.0453-9.15-0.0842-13.7-0.118-5.88-0.0437-11.8-0.1-17.6-0.162-4.51-0.0461-9.02-0.0869-13.5-0.126-2.17-0.0191-4.34-0.0395-6.5-0.0611-3.02-0.029-6.04-0.0514-9.06-0.0718-0.903-0.0098-1.81-0.0196-2.74-0.0297-3.95-0.421-3.95-0.421-7.28 1.08z" fill="#000204"/>
<path transform="translate(893 839)" d="m0 0c1.08-0.00175 2.17-0.0035 3.28-0.00531 3.54-0.00436 7.08-0.0015 10.6 0.00189 2.47-6.74e-4 4.94-0.00165 7.41-0.0029 5.16-0.00147 10.3 6.54e-4 15.5 0.00534 6.62 0.00573 13.2 0.00239 19.9-0.00357 5.09-0.0036 10.2-0.00247 15.3 1.28e-4 2.44 6.69e-4 4.89-1.57e-4 7.33-0.00248 3.4-0.00252 6.8 0.00131 10.2 0.0069 1.02-0.00202 2.03-0.00405 3.08-0.00613 0.919 0.00282 1.84 0.00564 2.79 0.00854 0.803 3.77e-4 1.61 7.54e-4 2.43 0.00114 1.83 0.126 1.83 0.126 2.83 1.13 0.0875 1.93 0.107 3.86 0.0977 5.79-0.00322 1.17-0.00645 2.34-0.00977 3.54-0.00838 1.23-0.0168 2.46-0.0254 3.73-0.00451 1.24-0.00902 2.47-0.0137 3.74-0.0118 3.06-0.0283 6.13-0.0488 9.19-2.86 0.953-4.62 1.12-7.58 1.12-0.94 0.00256-1.88 0.00513-2.85 0.00777-1.03-0.0021-2.06-0.0042-3.12-0.00636-1.09 0.00187-2.17 0.00374-3.29 0.00566-2.36 0.00401-4.73 0.00608-7.09 0.00646-5.03 0.00341-10.1 0.0248-15.1 0.0452-9.37 0.038-18.7 0.0698-28.1 0.0672-6.51-0.00177-13 0.0226-19.5 0.0619-2.48 0.0104-4.96 0.012-7.44 0.00435-3.48-0.00966-6.95 0.0116-10.4 0.0397-1.02-0.0102-2.03-0.0204-3.08-0.0309-6.41 0.0925-10.8 1.41-16.4 4.6-1.98 1.07-1.98 1.07-3.98 1.07-3.22 8.74-3.22 8.74-3 30h129v24c-4.1 0.683-7.35 1.12-11.4 1.12-1.04 0.00137-2.09 0.00275-3.16 0.00417-1.13-0.0036-2.26-0.00719-3.42-0.0109-1.2 1.46e-4 -2.4 2.92e-4 -3.64 4.43e-4 -3.28-5.76e-4 -6.56-0.00558-9.84-0.0126-3.43-0.00627-6.86-0.00684-10.3-0.00803-6.49-0.0031-13-0.0113-19.5-0.0213-7.39-0.0112-14.8-0.0167-22.2-0.0217-15.2-0.0104-30.4-0.028-45.6-0.0503 0.0813 3.71 0.194 7.42 0.312 11.1 0.0338 1.57 0.0338 1.57 0.0684 3.17 0.184 7.84 0.184 7.84 3.62 14.7 5.96 5.5 12 5.72 19.8 5.66 1.16 0.0105 2.32 0.021 3.52 0.0318 3.82 0.0287 7.64 0.0225 11.5 0.0158 2.66 0.0131 5.31 0.0282 7.97 0.0458 6.26 0.0374 12.5 0.0496 18.8 0.0526 7.14 0.0047 14.3 0.0377 21.4 0.0729 14.7 0.0718 29.3 0.105 44 0.122v28c-15.3 0.0453-30.5 0.0821-45.8 0.104-7.09 0.0103-14.2 0.0242-21.3 0.0473-6.18 0.0201-12.4 0.0329-18.5 0.0373-3.27 0.00259-6.53 0.00966-9.8 0.0233-42.4 0.17-42.4 0.17-54.6-9.21-1.21-0.872-1.21-0.872-2.44-1.76-7.5-6.56-10-16.5-11.2-26-0.124-0.945-0.249-1.89-0.377-2.86-1.33-11.1-1.39-22.2-1.33-33.4 0.0161-3.57 2.45e-5 -7.14-0.019-10.7-0.0394-41.1-0.0394-41.1 11.4-54.6 13.4-13.2 35.7-13.8 53.4-13.8z" fill="#000204"/>
<path transform="translate(457 839)" d="m0 0c1.59-0.00322 3.18-0.00659 4.76-0.0101 3.32-0.00596 6.64-0.00784 9.96-0.00725 4.21 1.01e-4 8.42-0.0135 12.6-0.0308 3.28-0.0112 6.56-0.0131 9.84-0.0126 1.55-0.00116 3.1-0.0055 4.65-0.0133 18.8-0.086 41.2 0.366 55.6 13.9 11 11.8 10.6 28 10.6 43.2 0.00645 1.6 0.0132 3.21 0.0202 4.81 0.0119 3.34 0.0157 6.69 0.0145 10-2.03e-4 4.24 0.0271 8.48 0.0615 12.7 0.0225 3.31 0.0263 6.62 0.0252 9.93 0.00233 1.56 0.011 3.12 0.0267 4.68 0.128 14-0.959 29.9-10.5 41-15.8 14-38.4 12.2-58.2 12.1-1.6 6.77e-4 -3.19 0.00165-4.79 0.0029-3.32 0.00146-6.63-6.21e-4 -9.95-0.00534-4.2-0.00569-8.4-0.00241-12.6 0.00357-3.29 0.00366-6.57 0.00244-9.86-1.28e-4 -1.55-6.56e-4 -3.09 1.1e-4 -4.64 0.00248-8.06 0.00965-16.1-0.109-24.2-0.52-1.03-0.0455-1.03-0.0455-2.08-0.0919-11.9-0.691-20.9-5.74-28.8-14.5-15-19.9-9.28-55.5-8.68-78.9 0.0365-1.43 0.0705-2.86 0.102-4.29 0.692-30.5 0.692-30.5 10.6-41 15.2-12.7 36.5-13 55.3-13zm-27.2 33.4c-3.98 5.15-5.5 9.26-5.64 15.8-0.018 0.664-0.0359 1.33-0.0544 2.01-0.0537 2.11-0.0877 4.23-0.121 6.34-0.0332 1.38-0.0677 2.76-0.104 4.14-0.23 9.5-0.261 19-0.209 28.5 0.00475 1.05 0.00951 2.1 0.0144 3.19 0.0273 2.77 0.0939 5.54 0.173 8.31 0.0058 0.91 0.0116 1.82 0.0176 2.76 0.199 6.13 1.23 11.4 5.79 15.7 5.26 3.29 9.89 4.59 16.1 4.52 0.769 0.00701 1.54 0.014 2.33 0.0212 2.52 0.0175 5.03 6e-3 7.55-0.00757 1.76 0.0027 3.53 0.00658 5.29 0.0116 3.69 0.00588 7.37-0.00262 11.1-0.0214 4.71-0.0228 9.41-0.00966 14.1 0.0143 3.64 0.0145 7.27 0.00983 10.9-5.11e-4 1.74-0.00266 3.47 5.61e-4 5.21 0.00992 2.43 0.0102 4.86-0.00543 7.29-0.0276 0.707 0.0081 1.41 0.0162 2.14 0.0245 5.4-0.0906 9.52-1.62 14-4.54 4.44-4.78 5.13-7.47 5.19-13.9 0.00818-0.712 0.0164-1.42 0.0248-2.16 0.0249-2.36 0.0414-4.73 0.0558-7.09 0.00799-1.21 0.00799-1.21 0.0161-2.45 0.0267-4.27 0.0461-8.55 0.0605-12.8 0.0166-4.41 0.0614-8.82 0.112-13.2 0.0337-3.39 0.0452-6.79 0.0509-10.2 0.00671-1.63 0.0219-3.25 0.0459-4.88 0.0317-2.28 0.0317-4.56 0.0243-6.84 0.00809-1.3 0.0162-2.59 0.0245-3.92-0.8-4.63-2.33-6.22-5.61-9.52-1.97-1.26-1.97-1.26-4-1.81-0.959-0.319-0.959-0.319-1.94-0.645-5.63-1.48-11.1-1.86-16.9-2.11-0.987-0.0417-1.97-0.0835-2.99-0.126-36.7-3.72-36.7-3.72-70.1 4.94z" fill="#000204"/>
<path transform="translate(1151,839)" d="m0 0c8.48 6.14 13.2 15.5 18.4 24.3 2.86 4.81 5.85 9.54 8.83 14.3 1.29 2.05 2.57 4.1 3.86 6.16 0.644 1.03 1.29 2.05 1.95 3.11 1.92 3.06 3.83 6.13 5.74 9.2 6.59 10.6 13.2 21.1 19.9 31.6 4.98 7.81 9.89 15.7 14.8 23.5 2.94 4.71 5.89 9.42 8.89 14.1 0.535 0.836 1.07 1.67 1.62 2.53 0.977 1.52 1.96 3.04 2.95 4.56 3.82 5.97 6.95 12.2 10 18.6-5.34 0.0989-10.7 0.172-16 0.22-1.82 0.0201-3.63 0.0474-5.45 0.082-2.61 0.0486-5.22 0.0712-7.83 0.0889-0.811 0.0206-1.62 0.0413-2.46 0.0626-3.5 0.00139-5.72-0.0692-8.59-2.18-1.7-2.33-3.32-4.66-4.83-7.11-0.592-0.951-1.18-1.9-1.79-2.88-0.628-1.02-1.26-2.05-1.9-3.1-0.663-1.07-1.33-2.14-2.01-3.24-2.05-3.31-4.08-6.63-6.12-9.94-0.592-0.965-1.18-1.93-1.79-2.93-3.45-5.64-6.88-11.3-10.3-16.9-2.08-3.43-4.16-6.85-6.24-10.3-12.4-20.3-12.4-20.3-17.5-28.9-5.84-9.77-11.9-19.5-18.2-28.9-4.29 1.43-5.24 4.59-7.25 8.38-0.809 1.48-1.62 2.96-2.43 4.45-0.397 0.723-0.794 1.45-1.2 2.19-1.39 2.47-2.88 4.86-4.43 7.24-3.17 4.89-6.19 9.87-9.19 14.9-0.505 0.844-1.01 1.69-1.53 2.56-1.66 2.77-3.31 5.55-4.97 8.32-15 25-15 25-21.1 34.7-2.72 4.31-5.4 8.65-8.07 13-0.364 0.593-0.728 1.19-1.1 1.8-1.48 2.4-2.95 4.81-4.42 7.22-1.03 1.68-2.06 3.37-3.09 5.05-0.902 1.47-0.902 1.47-1.82 2.98-1.42 2.25-1.42 2.25-2.42 3.25-2.88 0.0887-5.74 0.115-8.63 0.0977-1.3-0.00212-1.3-0.00212-2.62-0.00429-2.77-0.00562-5.54-0.0182-8.31-0.0309-1.87-0.00501-3.75-0.00958-5.62-0.0137-4.6-0.0111-9.21-0.0283-13.8-0.0488 6.24-11.6 6.24-11.6 9.62-17 1.01-1.63 1.01-1.63 2.04-3.29 3.26-5.2 6.55-10.4 9.84-15.6 3.06-4.85 6.07-9.72 8.99-14.7 4.83-8.12 9.89-16.1 15-24.1 3.03-4.77 6.04-9.55 9.05-14.3 2.47-3.91 4.94-7.82 7.43-11.7 0.982-1.55 1.96-3.09 2.95-4.64 0.729-1.15 0.729-1.15 1.47-2.32 2.81-4.44 5.56-8.92 8.27-13.4 0.614-1.02 1.23-2.04 1.86-3.09 1.18-1.97 2.36-3.94 3.53-5.92 5.6-9.32 11.7-19.3 21.7-24.4 8.1-1.53 17-1.74 24.3 2.38z" fill="#000204"/>
<path transform="translate(1278,839)" d="m0 0c4.25-0.0237 8.51-0.0428 12.8-0.0549 1.45-0.00504 2.9-0.0119 4.34-0.0205 2.08-0.0121 4.16-0.0178 6.23-0.0222 1.25-0.00524 2.5-0.0105 3.79-0.0159 2.87 0.114 2.87 0.114 3.87 1.11 0.12 2.92 0.175 5.83 0.189 8.75 0.00829 0.919 0.0166 1.84 0.0251 2.78 0.0174 2 0.0326 4.01 0.0458 6.01 0.021 3.18 0.048 6.36 0.0767 9.54 0.0598 6.76 0.112 13.5 0.163 20.3 0.0594 7.8 0.122 15.6 0.192 23.4 0.0264 3.12 0.0473 6.24 0.068 9.36-0.719 18.7-0.719 18.7 5.24 35.9 6.7 5.68 13.5 6.3 22 6.32 0.986 0.01 1.97 0.0201 2.99 0.0304 3.25 0.0308 6.49 0.0479 9.74 0.0648 2.26 0.0187 4.51 0.0383 6.77 0.0587 5.93 0.0513 11.9 0.0909 17.8 0.128 6.05 0.0401 12.1 0.0911 18.2 0.141 11.9 0.0967 23.7 0.18 35.6 0.258v27c-12 0.871-23.9 1.16-36 1.17-1.88 0.00323-3.77 0.00659-5.65 0.0101-3.92 0.00594-7.85 0.00785-11.8 0.00725-4.98-1.02e-4 -9.95 0.0136-14.9 0.0308-3.88 0.0112-7.77 0.0131-11.7 0.0126-1.83 0.00116-3.67 0.00549-5.5 0.0133-41.3 0.16-41.3 0.16-54.5-12.2-4.08-4.36-5.89-8.94-7.75-14.6-0.211-0.618-0.422-1.24-0.639-1.87-3.9-12.8-2.76-27.2-2.74-40.4-6.76e-4 -1.89-0.00165-3.78-0.0029-5.68-0.00146-3.95 6.37e-4 -7.89 0.00534-11.8 0.00569-5.01 0.00242-10-0.00357-15-0.00365-3.9-0.00245-7.8 1.28e-4 -11.7 6.59e-4 -1.85-1.21e-4 -3.69-0.00248-5.54-0.0111-11.2 0.283-22.2 1.14-33.4z" fill="#000204"/>
<path transform="translate(1140,939)" d="m0 0c13.5 12.2 27.7 33.9 34 51-1.7 1.7-3.86 1.13-6.18 1.13-1.11 0.00315-2.22 0.0063-3.36 0.00955-1.21-0.00202-2.43-0.00405-3.68-0.00613-1.25 9.57e-4 -2.5 0.00191-3.78 0.0029-2.66 6.83e-4 -5.31-6.8e-4 -7.97-0.00534-2.7-0.00451-5.39-0.00462-8.09 0-28.5 0.0457-28.5 0.0457-41.9-1.13 7.1-13.3 14.8-26 23.5-38.4 2.54-3.62 4.91-7.34 7.2-11.1 2.85-3.26 6.48-2.81 10.3-1.5z" fill="#000204"/>
<path transform="translate(388,1038)" d="m0 0c2.77 0.253 4.46 0.452 6.45 2.47 0.613 1.01 0.613 1.01 1.24 2.03 0.495 0.794 0.99 1.59 1.5 2.41 1.45 2.47 2.88 4.95 4.31 7.44 0.443 0.765 0.885 1.53 1.34 2.32 0.891 1.55 1.77 3.1 2.64 4.66 0.616 1.08 0.616 1.08 1.25 2.18 0.365 0.65 0.73 1.3 1.11 1.97 1.18 1.85 1.18 1.85 4.16 2.53 0.58-1.11 1.16-2.22 1.76-3.37 2.01-3.84 4.06-7.67 6.11-11.5 0.96-1.82 1.88-3.65 2.78-5.5 0.465-0.893 0.931-1.79 1.41-2.71 0.574-1.16 0.574-1.16 1.16-2.35 2.88-2.58 6-1.69 9.78-1.59 0.0248 5.32 0.0429 10.6 0.0549 16 0.00502 1.81 0.0118 3.62 0.0205 5.43 0.0122 2.6 0.0178 5.21 0.0222 7.81 0.00516 0.805 0.0103 1.61 0.0156 2.44 3.9e-4 3.92-0.142 7.53-1.11 11.4h-6c-1.88-3.19-2.24-5.52-2.2-9.2 0.00645-0.98 0.0129-1.96 0.0195-2.97 0.0168-1.02 0.0335-2.03 0.0508-3.08 0.00902-1.03 0.018-2.06 0.0273-3.12 0.0235-2.54 0.0564-5.08 0.0977-7.62-2.56 2.45-4.67 4.78-6.5 7.81-0.42 0.69-0.84 1.38-1.27 2.09-1.15 1.97-2.25 3.97-3.35 5.97-1.88 3.12-1.88 3.12-4.88 5.12-4.63-5.69-8.71-11.5-12.5-17.8-1.3-2.3-1.3-2.3-3.48-3.19 0.00524 0.752 0.0105 1.5 0.0159 2.28 0.0207 3.39 0.0338 6.77 0.0466 10.2 0.00838 1.18 0.0168 2.37 0.0254 3.59 0.00322 1.12 0.00645 2.25 0.00977 3.41 0.00524 1.04 0.0105 2.08 0.0159 3.16-0.114 2.41-0.114 2.41-1.11 3.41-2.5 0.125-2.5 0.125-5 0-1.95-1.95-1.13-4.9-1.14-7.49 0.00202-0.91 0.00405-1.82 0.00613-2.76-9.57e-4 -0.928-0.00191-1.86-0.0029-2.81-6.82e-4 -1.97 0.00117-3.93 0.00534-5.9 0.00535-3.02 5.53e-5 -6.04-0.00635-9.07 6.61e-4 -1.91 0.00194-3.81 0.00391-5.72-0.00202-0.91-0.00405-1.82-0.00613-2.76 0.024-6.38 0.024-6.38 1.14-7.49z" fill="#000204"/>
<path transform="translate(942,446)" d="m0 0c2 1 2 1 2.73 2.81 0.222 0.772 0.444 1.54 0.672 2.34 0.251 0.84 0.501 1.68 0.76 2.55 0.515 1.78 1.03 3.56 1.54 5.34 0.252 0.843 0.504 1.69 0.764 2.55 0.223 0.774 0.446 1.55 0.676 2.35 1.31 3.15 2.87 4.6 5.94 6.05 0.78 0.278 1.56 0.555 2.36 0.841 0.848 0.306 1.7 0.612 2.57 0.928 0.881 0.309 1.76 0.617 2.67 0.936 1.34 0.48 1.34 0.48 2.71 0.971 2.2 0.788 4.4 1.57 6.61 2.34-3 3.31-6.32 4.34-10.5 5.62-0.677 0.217-1.35 0.433-2.05 0.656-1.81 0.58-3.63 1.15-5.45 1.72-0.99 0.33-1.98 0.66-3 1-0.852 1.69-0.852 1.69-1.38 3.81-1.78 5.91-4.2 11.5-6.62 17.2-2.72-4.07-3.74-8.53-5.06-13.2-1.39-5.15-1.39-5.15-4.94-8.8-2.56-1.15-5.07-2.2-7.69-3.19-1.05-0.409-1.05-0.409-2.13-0.826-1.73-0.669-3.46-1.33-5.19-1.99v-3c2.46-0.837 4.92-1.67 7.38-2.5 0.699-0.238 1.4-0.477 2.12-0.723 5.28-1.78 5.28-1.78 7.51-1.78 2.43-7.97 4.72-16 7-24z" fill="#000204"/>
<path transform="translate(842,1039)" d="m0 0c3.46-0.0885 6.92-0.141 10.4-0.188 0.966-0.0251 1.93-0.0503 2.93-0.0762 7.79-0.0785 14.7 1.02 21.6 4.89 4.91 5.48 6.86 11.6 6.5 19-1.01 6.47-4.29 11.3-9.43 15.2-7.55 4.58-21.9 5.34-30.5 3.7-0.491-0.171-0.982-0.343-1.49-0.52-1.18-3.73-1.13-7.28-1.13-11.2-9.57e-4 -0.69-0.00191-1.38-0.0029-2.09-6.79e-4 -1.46 0.00116-2.91 0.00534-4.37 0.00534-2.22 5.38e-5 -4.43-0.00635-6.65 6.61e-4 -1.42 0.00194-2.84 0.00391-4.26 0.00169-1.93 0.00169-1.93 0.00342-3.89 0.119-3.28 0.505-6.34 1.13-9.56zm7 6v30c6.13 2.04 13.6 0.86 19.6-1.25 2.83-2.03 4.5-3.84 6.44-6.75 0.63-3.4 0.63-3.4 0.5-7 0.0103-1.2 0.0206-2.39 0.0312-3.62-0.625-3.97-1.69-5.58-4.53-8.38-6.76-4.07-14.3-3-22-3z" fill="#000204"/>
<path transform="translate(345 1043)" d="m0 0c5.12 4.12 7.92 8.72 8.94 15.2 0.372 6.92-2.56 11.7-6.19 17.4-5.12 4.79-11 6.88-18 7.12-6.17-0.29-10.9-1.76-15.6-5.75-0.743-0.887-1.49-1.77-2.25-2.69-0.763-0.804-1.53-1.61-2.31-2.44-2.94-6.22-2.82-13.5-0.992-20.1 2.69-5.94 7.15-9.74 13.1-12.3 8.85-2.96 15.3-0.828 23.3 3.5zm-24.1 4.31c-4.11 3.76-5.97 7.37-6.9 12.8-0.198 4.52 1.51 7.57 4.35 11 3.75 3.68 7.09 5.2 12.3 5.43 5.15-0.384 8.33-2.37 12.1-5.79 3.03-4.81 3.8-9 2.68-14.6-1.48-4.57-3.27-7.37-7.55-9.79-6.22-2.39-11.2-2.55-17 1z" fill="#000204"/>
<path transform="translate(244 1038)" d="m0 0c2.87 0.0922 5.74 0.198 8.6 0.319 0.986 0.0271 1.97 0.0541 2.99 0.082 7.03 0.291 12.7 0.84 17.8 6.17 3.14 4.83 3.45 9.88 2.62 15.5-2.38 2.88-2.38 2.88-5 5-1.51 1.72-1.51 1.72-2 4 1.3 2.84 1.3 2.84 3.38 5.62 3.62 5.22 3.62 5.22 3.62 7.38-2.56 0.5-2.56 0.5-6 0-4.63-3.87-6.81-7.04-8-13h-14c0.0206 1.96 0.0412 3.92 0.0625 5.94 0.0213 2.02 0.00994 4.04-0.0625 6.06-1 1-1 1-3.5 1.12-2.5-0.125-2.5-0.125-3.5-1.12-0.101-3.09-0.14-6.16-0.133-9.25-9.57e-4 -0.928-0.00191-1.86-0.0029-2.81-6.82e-4 -1.97 0.00117-3.93 0.00534-5.9 0.00535-3.02 5.53e-5 -6.04-0.00635-9.07 6.61e-4 -1.91 0.00194-3.81 0.00391-5.72-0.00202-0.91-0.00405-1.82-0.00613-2.76 0.028-7.45 0.028-7.45 3.16-7.56zm3.98 7.07v17c10.2 1.53 10.2 1.53 19.6-1.56 2.05-3.48 2.26-6.49 1.44-10.4-2.21-2.97-3.49-3.83-7-5-4.67-0.136-9.33-0.0429-14 0z" fill="#000204"/>
<path transform="translate(1205,1039)" d="m0 0c3.61-0.0619 7.22-0.124 10.9-0.188 1.68-0.041 1.68-0.041 3.39-0.0828 7.63-0.0627 13.9 1 20.5 4.96 4.84 5.11 6.46 9.76 6.75 16.8-0.203 6.04-1.42 10.1-5.56 14.5-9.9 8.55-23.9 6-36 6v-42zm7 7c-0.0878 2.15-0.107 4.29-0.0977 6.44 0.00322 1.31 0.00645 2.61 0.00977 3.96 0.00836 1.39 0.0168 2.78 0.0254 4.17 0.00501 1.39 0.00958 2.79 0.0137 4.18 0.0118 3.42 0.0283 6.84 0.0488 10.3 7.35 1.01 13.7 1.85 20.4-1.88 4.29-3.36 4.29-3.36 6.62-8.12 0.399-4.53 0.563-8.64-1.19-12.9-2.89-3.39-5.57-5.71-9.81-7.12-2.55-0.0958-5.07-0.139-7.62-0.125-0.694-0.00387-1.39-0.00773-2.1-0.0117-3.42-0.298-3.42-0.298-6.27 1.14z" fill="#000204"/>
<path transform="translate(684,1038)" d="m0 0c1.59-0.00308 3.18-0.00526 4.78-0.00708 0.887-0.00131 1.77-0.00263 2.69-0.00398 15.9 0.0694 15.9 0.0694 22.5 4.01 4.18 4.4 5.31 7.86 5.22 13.9-0.453 4.27-2.2 7.19-5.41 9.94-0.598 0.371-1.2 0.743-1.81 1.12 0.628 3.48 2.03 5.75 4.06 8.62 2.94 4.16 2.94 4.16 2.94 6.38-2.19 0.312-2.19 0.312-5 0-2.49-2.05-4.46-4-6-6.86-1.19-2.13-2.11-3.57-4-5.14-4.11-0.919-7.75-0.953-12-1-0.33 3.96-0.66 7.92-1 12-1.99 0.381-3.99 0.713-6 1-1-1-1-1-1.12-2.75 0.00222-0.762 0.00444-1.52 0.00673-2.31 7.55e-5 -0.861 1.51e-4 -1.72 2.29e-4 -2.61 0.00516-0.935 0.0103-1.87 0.0156-2.83 0.00141-0.953 0.00283-1.91 0.00429-2.89 0.00562-3.06 0.0182-6.11 0.0309-9.17 0.00501-2.07 0.00958-4.13 0.0137-6.2 0.0111-5.08 0.0283-10.2 0.0488-15.2zm7 8c-0.0732 2.7-0.0924 5.37-0.0625 8.06 0.00451 0.759 0.00902 1.52 0.0137 2.3 0.0118 1.88 0.0298 3.76 0.0488 5.64 6.21 1.95 13.5 1.23 19.2-1.56 2.15-3 2.41-4.9 2.18-8.54-0.659-2.92-2.04-4.2-4.43-5.9-3.39-1.13-6.05-1.13-9.62-1.12-1.75-0.00387-1.75-0.00387-3.54-0.00781-2.74-0.191-2.74-0.191-3.84 1.13z" fill="#000204"/>
<path transform="translate(503,1041)" d="m0 0c5.57 3.57 8.27 7.72 10 14 0.991 7.11 0.304 13.1-4 19-5.43 5.55-11.2 8.08-18.9 8.44-6.12-0.225-11.3-1.93-15.9-6.12-5.5-6.19-6.64-10.8-6.49-19.1 0.59-6.16 2.79-9.71 7.06-14.1 9.19-6.18 18.2-6.8 28.2-2.19zm-24 7c-4.21 5.16-5.56 9.37-5 16 2.35 4.51 5.46 8.56 10 11 4.88 1.39 9.3 1.79 13.9-0.625 3.57-2.71 6.12-5.36 8.12-9.38 0.537-4.9 0.524-8.87-1.56-13.4-3.82-4.12-7.45-6.04-12.8-7.62-4.92 0-8.51 1.33-12.6 4z" fill="#000204"/>
<path transform="translate(1072 1038)" d="m0 0c2.73 0.113 5.46 0.232 8.19 0.366 0.938 0.0354 1.88 0.0709 2.84 0.107 12.7 0.595 12.7 0.595 17.9 5.02 2.91 3.5 3.28 6.08 3.31 10.5 0.0142 0.855 0.0284 1.71 0.043 2.59-0.243 2.61-0.913 4.23-2.23 6.47h-2v2c-1.5 1.62-1.5 1.62-3 3 0.505 0.759 1.01 1.52 1.53 2.3 0.65 0.994 1.3 1.99 1.97 3.01 0.65 0.986 1.3 1.97 1.97 2.99 1.53 2.7 1.53 2.7 1.53 5.7-5.99 0-5.99 0-8.77-2.74-2.29-3.04-4.03-5.63-5.23-9.26-4.29-0.33-8.58-0.66-13-1-0.144 1.96-0.289 3.92-0.438 5.94-0.438 5.94-0.438 5.94-1.56 7.06-2.5 0.125-2.5 0.125-5 0-1.95-1.95-1.13-4.9-1.14-7.49 0.00202-0.91 0.00405-1.82 0.00613-2.76-9.57e-4 -0.928-0.00191-1.86-0.0029-2.81-6.82e-4 -1.97 0.00117-3.93 0.00534-5.9 0.00535-3.02 5.53e-5 -6.04-0.00635-9.07 6.61e-4 -1.91 0.00194-3.81 0.00391-5.72-0.00202-0.91-0.00405-1.82-0.00613-2.76 0.0281-7.46 0.0281-7.46 3.07-7.54zm5.07 6.05c-1.44 1.21-1.44 1.21-1.1 4.82 0.00668 1.58 0.0186 3.16 0.0352 4.75 0.00451 0.806 0.00902 1.61 0.0137 2.44 0.0118 2 0.0298 4 0.0488 5.99 4.88 2.44 11.9 1.08 17.1-0.18 2.25-0.771 2.25-0.771 4.05-3.57 0.978-3.63 0.99-5.67-0.125-9.25-1.82-2.52-2.92-2.98-6-3.73-1.14-0.151-2.27-0.302-3.44-0.457-1.13-0.159-2.27-0.317-3.43-0.48-3.27-0.402-3.27-0.402-7.13-0.332z" fill="#000204"/>
<path transform="translate(1419 1042)" d="m0 0c4.6 3.91 8.58 8.32 9.48 14.5 0.518 6.6-0.531 12.6-4.48 18-5.28 5.71-10.7 8.03-18.5 8.41-6.94-0.256-12.6-2.54-17.4-7.62-3.98-5.2-6-10.8-5.62-17.4 0.984-6.12 4.08-10.7 8.56-14.8 8.28-5.52 19.2-6.41 28-1.11zm-24.5 6.48c-4.09 4.89-4.65 9.1-4.38 15.4 0.662 4.56 2.42 7.11 6.07 9.87 4.56 2.73 8.6 3.3 13.8 2.54 4.37-1.44 7.55-4.32 10.5-7.82 1.74-5.21 1.66-10.1-0.188-15.3-3.35-4.96-7.05-7.22-12.8-8.69-5.12 0-8.66 1.32-13 4z" fill="#000204"/>
<path transform="translate(642 1043)" d="m0 0c4.51 3.9 7.23 8.18 8.2 14.1 0.318 7.89-1.77 13.2-6.89 19.1-6.04 5.15-11.1 6.58-18.9 6.46-6.11-0.628-10.9-3.1-15.1-7.59-4.12-5.35-5.13-11-4.56-17.7 1.12-6.37 2.75-10.9 8.04-14.8 10.1-6.1 19-4.65 29.2 0.441zm-26.2 5.38c-3.57 3.84-4.81 7.55-5.16 12.7 0.377 5.44 2.87 9.11 6.79 12.7 5.57 2.58 10.8 3.39 16.7 1.5 3.93-2.83 6.96-5.36 8.29-10.1 0.733-5 0.471-9.17-1.6-13.9-3.89-4.37-7.63-6.06-13.4-6.97-4.52-0.0475-7.92 1.43-11.6 3.97z" fill="#000204"/>
<path transform="translate(172,1039)" d="m0 0c3.69-0.0878 7.37-0.141 11.1-0.188 1.56-0.0377 1.56-0.0377 3.15-0.0762 7.24-0.069 12.2 0.548 18.1 5.01 2.71 3.61 3.8 6.98 3.57 11.5-0.679 4.16-1.58 6.93-4.82 9.72-4.69 3.06-8.81 3.27-14.2 3.56-0.75 0.0432-1.5 0.0864-2.27 0.131-1.85 0.106-3.69 0.207-5.54 0.307-0.33 3.96-0.66 7.92-1 12-3.47 0.495-3.47 0.495-7 1-1.29-8.83-1.11-17.7-1.06-26.6 0.00502-1.6 0.00959-3.19 0.0137-4.79 0.0109-3.88 0.0281-7.76 0.0488-11.6zm7 7c-0.0998 2.51-0.139 4.99-0.125 7.5-0.00387 0.703-0.00773 1.41-0.0117 2.13-0.307 3.48-0.307 3.48 1.14 6.37 2.81 0.207 5.56 0.324 8.38 0.375 0.781 0.0374 1.56 0.0748 2.37 0.113 2.19 0.0338 4.12-0.00163 6.26-0.488 2.58-2.95 2.96-4.66 3.44-8.56-0.157-3.46-0.157-3.46-2.19-5.81-3.95-2.86-7.64-2.76-12.4-2.75-1.07-0.00258-2.13-0.00516-3.23-0.00781-2.51-0.16-2.51-0.16-3.58 1.13z" fill="#000204"/>
<path transform="translate(948,1039)" d="m0 0v5c-7.85 1.81-16.1 1.44-24 0v13h21v5h-21v13c2.47-0.0174 2.47-0.0174 5-0.0352 2.15-0.00938 4.29-0.0185 6.44-0.0273 1.09-0.00838 2.18-0.0168 3.3-0.0254 1.03-0.00322 2.07-0.00645 3.13-0.00977 0.958-0.00524 1.92-0.0105 2.9-0.0159 2.22 0.114 2.22 0.114 3.22 1.11 0.0406 1.67 0.0427 3.33 0 5-2.45 1.22-4.06 1.13-6.8 1.13-0.959 0.00129-1.92 0.00258-2.91 0.00391-1.01-0.00387-2.01-0.00773-3.05-0.0117-0.99 0.00387-1.98 0.00773-3 0.0117-9.96-0.0133-9.96-0.0133-14.2-1.14-1.69-3.38-1.12-7.22-1.1-10.9 0.00141-0.885 0.00283-1.77 0.00429-2.68 0.00561-2.83 0.0182-5.67 0.0309-8.5 0.00501-1.92 0.00958-3.84 0.0137-5.75 0.011-4.71 0.0283-9.41 0.0488-14.1 4.09-0.168 8.19-0.328 12.3-0.482 1.39-0.0534 2.79-0.109 4.18-0.166 2-0.0819 4-0.156 6-0.231 1.81-0.0707 1.81-0.0707 3.65-0.143 2.89 0.0217 2.89 0.0217 4.89 1.02z" fill="#000204"/>
<path transform="translate(770 1037)" d="m0 0c4.98 1.7 7.06 7.87 9.29 12.4 1.6 3.34 3.15 6.71 4.68 10.1 0.967 2.13 1.95 4.24 2.94 6.36 0.62 1.36 1.24 2.72 1.86 4.08 0.296 0.627 0.591 1.25 0.896 1.9 1.67 3.76 2.18 6.14 0.893 10.1-2.81-0.562-2.81-0.562-6-2-1.75-3.56-1.75-3.56-3-7-2.45-1.23-4.05-1.11-6.79-1.1-1.41 0.00483-1.41 0.00483-2.85 0.00977-0.985 0.00838-1.97 0.0168-2.98 0.0254-0.993 0.00451-1.99 0.00902-3.01 0.0137-2.46 0.0118-4.91 0.0283-7.37 0.0488-0.251 0.637-0.502 1.27-0.761 1.93-0.342 0.826-0.684 1.65-1.04 2.5-0.334 0.823-0.667 1.65-1.01 2.49-1.19 2.07-1.19 2.07-4.44 3.14-0.908-0.0206-1.82-0.0412-2.75-0.0625 1.66-10.2 7-20.1 11.1-29.6 0.324-0.749 0.649-1.5 0.983-2.27 5.11-11.5 5.11-11.5 9.33-13zm-1.44 10.9c-1.2 2.43-2.38 4.87-3.56 7.31-0.342 0.69-0.684 1.38-1.04 2.09-2.15 4.15-2.15 4.15-1.4 8.6h16c-1.97-6.21-4.25-12.1-7-18h-3z" fill="#000204"/>
<path transform="translate(1170,1039)" d="m0 0v5c-2.92 0.842-5.51 1.12-8.55 1.1-0.844-0.00322-1.69-0.00645-2.56-0.00977-0.873-0.00838-1.75-0.0168-2.64-0.0254-0.888-0.00451-1.78-0.00902-2.69-0.0137-2.19-0.0118-4.37-0.0297-6.56-0.0488v11c6.6 0.33 13.2 0.66 20 1 0.33 1.65 0.66 3.3 1 5-10.4 0.495-10.4 0.495-21 1v12c1.58-0.0116 3.15-0.0232 4.78-0.0352 2.05-0.00938 4.11-0.0185 6.16-0.0273 1.04-0.00838 2.08-0.0168 3.15-0.0254 0.989-0.00322 1.98-0.00645 3-0.00977 0.916-0.00524 1.83-0.0105 2.78-0.0159 2.13 0.114 2.13 0.114 3.13 1.11 0.0406 1.67 0.0427 3.33 0 5-3.45 1.08-6.48 1.04-10.1 0.879-1.05-0.0431-2.09-0.0862-3.17-0.131-1.32-0.0613-2.64-0.123-4-0.186-4.21-0.186-8.41-0.371-12.8-0.562v-42c10.4-1.04 19.7-1.08 30 0z" fill="#000204"/>
<path transform="translate(1032,1041)" d="m0 0c1.75 1.44 1.75 1.44 3 3-0.312 2.69-0.312 2.69-1 5-0.534-0.217-1.07-0.433-1.62-0.656-7.08-2.64-13.6-3.72-20.8-1.09-3.65 2.49-5.17 4.58-6.56 8.75-0.368 5.62-0.192 9.16 3 14 3.65 4.1 7.23 4.76 12.5 5.12 3.72-0.175 6.17-1.49 9.5-3.12 2.94-0.188 2.94-0.188 5 0-0.223 2.32-0.223 2.32-1 5-5.04 4.12-11.1 5.79-17.5 5.42-5.79-0.987-10-3.1-14.3-7.11-4.49-7-6.42-14.1-4.69-22.4 1.92-6.28 5.78-9.89 11.5-13 8.03-3.45 15.3-2.59 23.1 1.04z" fill="#000204"/>
<path transform="translate(1322 1039)" d="m0 0c1.52 1.59e-4 3.04 0.00585 4.55 0.0159 0.798 0.00141 1.6 0.00283 2.42 0.00429 2.56 0.00562 5.12 0.0182 7.67 0.0309 1.73 0.00501 3.46 0.00958 5.19 0.0137 4.25 0.011 8.5 0.0283 12.7 0.0488v5c-2.7 1.35-5.12 1.34-8.12 1.56-1.1 0.0838-2.19 0.168-3.32 0.254-0.843 0.0606-1.69 0.121-2.55 0.184 0.00786 1.58 0.00786 1.58 0.0159 3.2 0.018 3.9 0.0296 7.8 0.0391 11.7 0.00504 1.69 0.0119 3.38 0.0205 5.07 0.0121 2.43 0.0178 4.85 0.0222 7.28 0.00516 0.76 0.0103 1.52 0.0156 2.3 1.96e-4 1.82-0.0513 3.63-0.113 5.45-1 1-1 1-3.5 1.12-2.5-0.125-2.5-0.125-3.5-1.12-0.16-2.59-0.259-5.16-0.316-7.75-0.0208-0.775-0.0416-1.55-0.063-2.35-0.0656-2.49-0.124-4.97-0.183-7.46-0.0432-1.68-0.0868-3.36-0.131-5.04-0.107-4.13-0.209-8.26-0.307-12.4-4.62-0.66-9.24-1.32-14-2-0.33-1.32-0.66-2.64-1-4 1-1 1-1 4.42-1.11z" fill="#000204"/>
<path transform="translate(541,1039)" d="m0 0h35c1 4 1 4 0 6-6.43 0.495-6.43 0.495-13 1-0.33 11.9-0.66 23.8-1 36h-5c-1-1-1-1-1.11-4.42 1.59e-4 -1.52 0.00585-3.04 0.0159-4.55 0.00141-0.798 0.00283-1.6 0.00429-2.42 0.00562-2.56 0.0182-5.12 0.0309-7.67 0.00501-1.73 0.00958-3.46 0.0137-5.19 0.011-4.25 0.0283-8.5 0.0488-12.7-1.36 0.0348-1.36 0.0348-2.74 0.0703-1.18 0.018-2.36 0.0361-3.57 0.0547-1.76 0.0348-1.76 0.0348-3.55 0.0703-3.14-0.195-3.14-0.195-6.14-2.2 0.33-1.32 0.66-2.64 1-4z" fill="#000204"/>
<path transform="translate(1284 1039)" d="m0 0c3 0.125 3 0.125 4 1.12 0.0887 3.03 0.115 6.04 0.0977 9.07-0.00141 0.909-0.00283 1.82-0.00429 2.75-0.00562 2.91-0.0182 5.83-0.0309 8.74-0.00501 1.97-0.00958 3.94-0.0137 5.91-0.0111 4.84-0.0283 9.68-0.0488 14.5-2.67 1.33-4.17 0.671-7 0-0.167-5.82-0.328-11.6-0.482-17.5-0.0535-1.98-0.109-3.96-0.166-5.95-0.0817-2.84-0.157-5.68-0.231-8.53-0.027-0.892-0.0541-1.78-0.0819-2.7-0.0519-2.12-0.0511-4.24-0.0392-6.36 1-1 1-1 4-1.12z" fill="#000204"/>
<path transform="translate(1164,1027)" d="m0 0c-1.38 3.4-2.63 4.7-5.94 6.25-0.69 0.335-1.38 0.67-2.09 1.02-1.97 0.734-1.97 0.734-4.97 0.734 1.29-2.88 2.57-4.96 5-7 2.93-0.976 4.96-1.08 8-1z" fill="#000204"/>
<path transform="translate(1134,934)" d="m0 0v3z" fill="#000204"/>
<path transform="translate(898,734)" d="m0 0 2 1z" fill="#000204"/>
</svg>
