<?xml version="1.0" encoding="utf-8"?>
<!DOCTYPE svg PUBLIC "-//W3C//DTD SVG 1.0//EN" "http://www.w3.org/TR/2001/REC-SVG-20010904/DTD/svg10.dtd">
<svg version="1.0" xmlns="http://www.w3.org/2000/svg" width="452px" height="452px" viewBox="0 0 452 452" preserveAspectRatio="xMidYMid meet">
 <g fill="none">
  <path d="M0 226 l0 -226 226 0 226 0 0 226 0 226 -226 0 -226 0 0 -226z m90.5 50 c1.2 -0.5 -3 -0.6 -10 -0.3 -6.6 0.3 -15.1 0.3 -18.8 -0.1 l-6.7 -0.8 0 -7.9 0 -7.9 18.5 0 c10.2 0 18.5 -0.3 18.5 -0.7 0 -0.5 -8.3 -0.7 -18.5 -0.5 l-18.5 0.3 0 -8.1 0 -8 17.8 0 c12.5 0 18.2 0.4 19 1.2 0.7 0.7 1.2 3.2 1.2 5.6 0 2.6 0.4 4.1 1 3.7 1.4 -0.9 1.2 -6.7 -0.4 -8.8 -2.3 -2.9 -7.3 -3.7 -24.8 -3.7 l-16.8 0 0 18.5 0 18.5 18.3 -0.1 c10 0 19.1 -0.4 20.2 -0.9z m60 -0.5 c4.9 -2.4 6 -5.4 6 -17.1 0 -8.8 -0.3 -10.6 -2.1 -13.1 -3.2 -4.3 -8.2 -5.5 -20.9 -5.1 -17.4 0.6 -19.5 2.6 -19.5 18.6 0 11.2 1.1 14 6 16.4 4.7 2.4 25.6 2.6 30.5 0.3z m28.5 -6 l0 -7.5 3.5 0 c2.1 0 5.4 1.2 8.3 3 5.9 3.6 6.2 3.6 6.2 0.6 0 -2.2 0.5 -2.5 5.3 -3 2.8 -0.3 6.6 -0.8 8.2 -0.9 1.7 -0.2 -4.8 -0.5 -14.2 -0.6 l-17.3 -0.1 0 -9.5 0 -9.5 17.3 -0.1 c10.1 -0.1 16.2 -0.4 14.7 -0.9 -1.4 -0.4 -9.8 -0.8 -18.7 -0.9 l-16.3 -0.1 0 18.5 c0 15.8 0.2 18.5 1.5 18.5 1.2 0 1.5 -1.5 1.5 -7.5z m99 6.5 c0 -0.6 -6.4 -1 -17.3 -1 -12.1 0 -17.7 -0.4 -18.5 -1.2 -0.7 -0.7 -1.2 -4 -1.2 -8 l0 -6.8 18.3 -0.2 18.2 -0.3 -18.2 -0.2 -18.3 -0.3 0 -7 c0 -5.5 0.4 -7.1 1.8 -8 1 -0.7 1.1 -1 0.3 -0.7 -0.8 0.2 -2.4 1.6 -3.5 3.1 -1.7 2.3 -2.1 4.2 -2.1 12.4 0 13.1 1.4 16.2 8.5 18.5 3 1 32 0.7 32 -0.3z m26.8 -10.7 c3.3 -5.5 6.8 -11.3 7.7 -12.7 1 -1.4 1.5 -2.6 1.2 -2.6 -0.7 0 -16.7 25.5 -16.7 26.6 0 1.4 1.5 -0.8 7.8 -11.3z m18.5 8.7 c-0.9 -1.6 -2 -3 -2.3 -3 -0.3 0 -1.4 1.4 -2.3 3 l-1.8 3 4.1 0 4.1 0 -1.8 -3z m17.6 -5.2 c-2.9 -4.6 -8.1 -12.9 -11.6 -18.5 -3.6 -5.7 -7 -10.3 -7.7 -10.3 -0.7 0 -2.1 0.9 -3.1 2 -1.8 2 -1.7 2 1.9 2 4 0 4.1 0.1 18.2 23.2 3.2 5.4 6.2 9.8 6.7 9.8 0.4 0 -1.6 -3.7 -4.4 -8.2z m59.1 7.2 c0 -0.6 -5.6 -1 -14.9 -1 -19.1 0 -18.1 1.1 -18.1 -19.7 0 -12.9 -0.2 -15.3 -1.5 -15.3 -1.3 0 -1.5 2.2 -1.5 14 0 21.7 1.2 22.9 22.8 23 8.1 0 13.2 -0.4 13.2 -1z m-304.4 -6.1 c0.4 -2.2 0 -4.1 -1 -5.4 -1.4 -1.9 -1.5 -1.6 -1.6 4.5 0 6.8 1.6 7.4 2.6 0.9z m124 -16.5 c0.5 -2.5 0.1 -4.7 -1 -7.1 -0.9 -2 -1.8 -3.4 -1.9 -3.2 -0.1 0.2 -0.1 3.7 0.1 7.7 0.4 7.5 1.6 8.7 2.8 2.6z m58.4 -12.4 c0 -1.2 -27.3 -1.2 -31 0 -1.5 0.5 4.3 0.8 14.3 0.9 10.5 0.1 16.7 -0.3 16.7 -0.9z m2.5 -66.4 c10.3 -2 10.5 -2.1 10.5 -7.2 0 -2.4 -0.3 -4.4 -0.7 -4.4 -0.5 0 -3.5 0.9 -6.9 1.9 -12 3.8 -35.8 5 -48.4 2.5 -5.1 -1 7.8 3.8 16.5 6.1 10.3 2.8 19 3.1 29 1.1z m-109.6 -10.8 c-0.1 -8 -0.3 -8.7 -1 -4.8 -0.7 4.1 -0.2 14 0.7 14 0.2 0 0.3 -4.2 0.3 -9.2z"/>
  <path d="M118.6 273.4 c-1.3 -1.2 -1.6 -4.1 -1.6 -14.9 0 -17.1 -0.7 -16.5 17.7 -16.5 7.2 0 14.3 0.4 15.7 1 l2.6 1 0 14.3 c0 9.8 -0.4 14.7 -1.2 15.5 -0.8 0.8 -5.9 1.2 -16.4 1.2 -12.5 0 -15.5 -0.3 -16.8 -1.6z"/>
 </g>
 <g fill="#000000">
  <path d="M49.2 299.8 l0.3 -6.3 3.5 0.3 c3.1 0.2 6 2.3 6 4.3 0 1.6 -3.3 3.9 -5.6 3.9 -1.4 0 -2.4 0.6 -2.4 1.4 0 0.8 -0.5 1.8 -1.1 2.1 -0.7 0.5 -0.9 -1.4 -0.7 -5.7z m7.1 -1.2 c0.7 -1.7 -1.1 -3.6 -3.5 -3.6 -1.3 0 -1.8 0.8 -1.8 2.5 0 2 0.5 2.5 2.4 2.5 1.3 0 2.6 -0.6 2.9 -1.4z"/>
  <path d="M68.6 304.9 c-0.4 -0.9 -0.6 -3.8 -0.4 -6.5 0.3 -5.2 0 -5 6.5 -4.6 2.7 0.2 4.2 4.5 2.3 6.7 -1 1.2 -1 1.8 -0.1 2.9 0.8 0.9 0.8 1.6 0.2 2 -0.6 0.4 -1.5 -0.3 -2.1 -1.4 -1.5 -2.7 -4.8 -2.6 -5.3 0.3 -0.3 1.8 -0.5 1.9 -1.1 0.6z m7.1 -6.5 c0.7 -1.8 -1.2 -3.4 -3.9 -3.4 -1.3 0 -1.8 0.8 -1.8 2.5 0 2 0.5 2.5 2.5 2.5 1.4 0 2.8 -0.7 3.2 -1.6z"/>
  <path d="M90.2 304.8 c-4.5 -2.2 -4.1 -8.8 0.7 -10.8 3.3 -1.3 6.4 -0.2 8.1 3 1.5 2.8 1.3 3.8 -1.5 6.5 -2.6 2.7 -3.8 2.9 -7.3 1.3z m6.2 -2.4 c0.9 -0.8 1.6 -2.2 1.6 -2.9 0 -1.6 -2.7 -4.5 -4.1 -4.5 -2.4 0 -4.9 2.2 -4.9 4.3 0 4.4 4.3 6.2 7.4 3.1z"/>
  <path d="M109.8 305.4 c-0.5 -0.4 -0.8 -3.1 -0.8 -6.1 0 -6.3 1.6 -7 4.4 -1.8 1.1 1.9 2.2 3.5 2.6 3.5 0.4 0 1.5 -1.6 2.6 -3.5 2.9 -5.4 4.6 -4.6 4.2 2 -0.2 3.1 -0.7 5.4 -1.3 5.3 -0.5 -0.2 -0.9 -1.5 -0.8 -3 0.2 -3.5 -0.9 -3.6 -2.7 -0.3 -0.7 1.4 -1.6 2.5 -2 2.5 -0.4 0 -1.3 -1.1 -2 -2.5 -1.9 -3.5 -2.8 -3.1 -3.2 1.1 -0.2 2 -0.6 3.2 -1 2.8z"/>
  <path d="M134.4 303.5 c-3.1 -3.1 -2.8 -6.1 0.9 -8.9 2.6 -1.9 3 -1.9 5.4 -0.6 3.5 2 4.7 4.2 4 7.2 -0.6 2.2 -4.2 4.8 -6.8 4.8 -0.5 0 -2.1 -1.1 -3.5 -2.5z m6.7 -0.5 c3.7 -2 1.5 -8 -3 -8 -1.4 0 -4.1 2.9 -4.1 4.5 0 1.6 2.7 4.5 4.1 4.5 0.6 0 1.9 -0.5 3 -1z"/>
  <path d="M175 305.3 c-5.9 -2.1 -5 -10.3 1.2 -11.8 2.1 -0.5 3.3 -0.1 5.2 1.9 3.2 3.1 3.3 5 0.1 8.1 -2.4 2.5 -3.6 2.8 -6.5 1.8z m5.4 -2.9 c0.9 -0.8 1.6 -2.2 1.6 -2.9 0 -0.7 -0.7 -2.1 -1.6 -2.9 -3 -3 -7.4 -1.3 -7.4 2.9 0 4.2 4.4 5.9 7.4 2.9z"/>
  <path d="M193.6 304.9 c-0.4 -0.9 -0.6 -3.8 -0.4 -6.5 0.3 -4.8 0.3 -4.9 3.6 -4.8 1.8 0.1 3.9 0.5 4.7 0.8 1.8 0.6 2 4.7 0.3 6.4 -0.8 0.8 -0.8 1.5 0.2 2.7 0.7 0.8 0.8 1.5 0.2 1.5 -0.5 0 -1.5 -0.7 -2.2 -1.5 -1.9 -2.3 -4.8 -1.9 -5.3 0.8 -0.3 1.8 -0.5 1.9 -1.1 0.6z m6.9 -7.4 c0 -1.4 -0.8 -2.1 -2.7 -2.3 -2.4 -0.3 -2.8 0 -2.8 2.3 0 2.3 0.4 2.6 2.8 2.3 1.9 -0.2 2.7 -0.9 2.7 -2.3z"/>
  <path d="M212 305.3 c0 -0.7 1.1 -3.8 2.5 -7 2.2 -4.9 2.8 -5.5 3.9 -4.2 1.9 2 5.7 10.9 4.6 10.9 -0.5 0 -1.2 -0.4 -1.5 -1 -1 -1.7 -6.7 -1.1 -8.1 0.8 -0.8 1 -1.3 1.2 -1.4 0.5z m7.7 -5 c-0.2 -0.5 -0.7 -1.7 -1.1 -2.8 -0.6 -1.6 -0.9 -1.7 -1.6 -0.5 -1.6 2.4 -1.1 4 1.1 4 1.1 0 1.8 -0.3 1.6 -0.7z"/>
  <path d="M238.5 304.7 c-0.4 -0.8 -0.5 -3.6 -0.3 -6.3 l0.3 -4.9 4 0.3 c5.1 0.4 6.5 1.7 6.5 5.7 0 3.9 -1.3 5.1 -6.2 6 -2.9 0.6 -3.9 0.4 -4.3 -0.8z m6.6 -1.7 c4 -2.2 1.4 -8 -3.5 -8 -1.2 0 -1.6 1.1 -1.6 4.5 0 4.8 1.1 5.6 5.1 3.5z"/>
  <path d="M259.4 304.6 c-0.3 -0.7 -0.4 -3.5 -0.2 -6.2 0.3 -4.7 0.4 -4.8 4 -5.2 2 -0.2 3.9 0.2 4.3 0.7 0.4 0.7 -0.7 1.1 -2.9 1.1 -3 0 -3.6 0.4 -3.6 2.1 0 1.7 0.5 2 2.5 1.7 1.4 -0.3 2.8 -0.1 3.1 0.3 0.3 0.5 -0.9 0.9 -2.5 0.9 -2.4 0 -3.1 0.4 -3.1 2 0 1.6 0.7 2 3.6 2 2.1 0 3.3 0.4 2.9 1 -0.9 1.5 -7.5 1.2 -8.1 -0.4z"/>
  <path d="M285 304.7 c-2 -1 -2.5 -2 -2.5 -5.2 0 -3.3 0.5 -4.2 2.5 -5.2 2.7 -1.3 7 -0.7 7 0.8 0 0.5 -1.1 0.7 -2.5 0.3 -3.1 -0.8 -5.5 1 -5.5 4.1 0 3.1 2.4 4.9 5.5 4.1 2.7 -0.7 3.5 0.8 0.9 1.8 -2.1 0.8 -2.5 0.8 -5.4 -0.7z"/>
  <path d="M302.8 305.4 c-1.3 -1.3 -0.9 -11.4 0.5 -11.9 2 -0.8 7 1 8.1 2.8 0.8 1.2 0.7 2.3 -0.2 3.8 -1 1.6 -1.1 2.4 -0.1 3.5 0.6 0.8 0.8 1.8 0.4 2.2 -0.4 0.4 -1.4 -0.3 -2.2 -1.5 -2 -2.9 -5.1 -3 -5.5 -0.2 -0.2 1.1 -0.6 1.7 -1 1.3z m6.9 -7 c0.7 -1.8 -1.2 -3.4 -3.9 -3.4 -1.3 0 -1.8 0.8 -1.8 2.5 0 2 0.5 2.5 2.5 2.5 1.4 0 2.8 -0.7 3.2 -1.6z"/>
  <path d="M322.4 304.6 c-0.3 -0.7 -0.4 -3.5 -0.2 -6.2 0.3 -4.8 0.3 -4.8 4.1 -5.2 2.2 -0.2 3.7 0.1 3.7 0.7 0 0.6 -1.3 1.1 -3 1.1 -2.3 0 -3 0.5 -3 1.9 0 1.5 0.8 2.1 3.3 2.4 l3.2 0.4 -3.2 0.1 c-2.6 0.2 -3.3 0.6 -3.3 2.2 0 1.6 0.7 2 3.6 2 2.1 0 3.3 0.4 2.9 1 -0.9 1.5 -7.5 1.2 -8.1 -0.4z"/>
  <path d="M340.7 305.3 c-0.4 -0.3 -0.7 -3 -0.7 -5.9 0 -5.9 1.4 -6.9 7.5 -5.3 3.7 1.1 5.2 4 4 7.7 -0.8 2.9 -8.9 5.5 -10.8 3.5z m7.4 -2.3 c2.8 -1.5 2.5 -5.8 -0.5 -7.2 -3.7 -1.6 -5.6 -0.4 -5.6 3.5 0 4.8 1.8 5.9 6.1 3.7z"/>
  <path d="M362 299.6 c0 -3.7 0.4 -6.6 1 -6.6 0.6 0 1 2.6 1 5.9 0 3.3 -0.4 6.3 -1 6.6 -0.6 0.4 -1 -1.8 -1 -5.9z"/>
  <path d="M377 300.6 c0 -5.1 -0.2 -5.6 -2.2 -5.6 -3.6 0 -1.2 -1.2 3.1 -1.5 2.3 -0.2 4.3 0.1 4.7 0.6 0.3 0.5 -0.4 0.9 -1.5 0.9 -1.8 0 -2.1 0.6 -2.1 4.9 0 2.8 -0.4 5.3 -1 5.6 -0.6 0.4 -1 -1.5 -1 -4.9z"/>
  <path d="M394 304.7 c-2 -1 -2.5 -2 -2.5 -5.2 0 -3.3 0.4 -4.2 2.8 -5.3 4.2 -2 8.1 0.2 8.5 5 0.2 2.8 -0.2 4 -2 5.2 -2.7 1.9 -3.5 2 -6.8 0.3z m6 -2.1 c2.8 -3.5 -1.1 -9.3 -4.7 -7 -3.6 2.2 -2.3 8.4 1.7 8.4 1 0 2.3 -0.7 3 -1.4z"/>
  <path d="M157 300 c0 -4.4 -0.3 -5 -2.1 -5 -1.1 0 -1.8 -0.4 -1.5 -0.8 0.6 -0.9 8.4 -0.8 9.3 0.2 0.4 0.3 -0.3 0.6 -1.5 0.6 -2 0 -2.2 0.5 -2.2 5 0 2.8 -0.4 5 -1 5 -0.5 0 -1 -2.2 -1 -5z"/>
  <path d="M49 258.5 l0 -21.5 19.8 0 c20.4 0 25.5 0.7 27.8 3.7 2 2.6 1.8 13.2 -0.2 15.4 -1.5 1.7 -1.5 2 0.5 4.5 2.3 2.9 2.9 10.2 1.2 14.7 -1.5 4 -5.7 4.7 -28.2 4.7 l-20.9 0 0 -21.5z m36.8 13.6 l4.3 -0.1 -0.3 -4.7 -0.3 -4.8 -15.7 -0.3 -15.8 -0.3 0 5 c0 6.2 -1.9 5.8 27.8 5.2z m3 -18.3 c1.5 -1.5 1.5 -6.1 0 -7.6 -0.8 -0.8 -5.8 -1.2 -16 -1.2 l-14.8 0 0 5 0 5 14.8 0 c10.2 0 15.2 -0.4 16 -1.2z"/>
  <path d="M117 278.2 c-5.2 -2.6 -6 -5 -6 -19.4 0 -20.1 1 -21.1 22.5 -21.6 15.8 -0.4 20.6 0.6 23.9 5.1 1.9 2.6 2.1 4.2 2.1 16.1 0 20.7 -1.1 21.6 -24.2 21.6 -12.1 0 -15.4 -0.3 -18.3 -1.8z m31.8 -7.4 c0.8 -0.8 1.2 -5 1.2 -12.5 0 -11.3 0 -11.4 -2.6 -12.3 -1.4 -0.6 -7.1 -1 -12.7 -1 -14.5 0 -14.7 0.2 -14.7 13.5 0 13.8 -0.3 13.5 15.4 13.5 8.1 0 12.6 -0.4 13.4 -1.2z"/>
  <path d="M172.9 277.3 c0 -1.6 0 -11.1 -0.1 -21.3 l0 -18.5 20.8 0 c17.8 0 21.4 0.3 24 1.7 4.2 2.3 5.7 6.4 5.2 13.9 -0.4 5.4 -0.8 6.6 -3.6 9 -2.6 2.4 -4.2 2.9 -8.5 3 -2.8 0.1 -6.5 0.4 -8.2 0.8 -2.8 0.6 -2.3 1 8.4 7.1 l11.3 6.5 -7.5 0.3 -7.4 0.3 -12.1 -7.6 c-6.7 -4.1 -12.4 -7.5 -12.7 -7.5 -0.3 0 -0.5 3.4 -0.5 7.5 l0 7.5 -4.5 0 c-4.2 0 -4.5 -0.2 -4.6 -2.7z m39.9 -20.5 c1.7 -1.7 1.5 -8.4 -0.4 -10.2 -1.3 -1.3 -4.2 -1.6 -16 -1.6 l-14.4 0 0 6.5 0 6.5 14.8 0 c10.2 0 15.2 -0.4 16 -1.2z"/>
  <path d="M243 279.3 c-7.4 -2.4 -8.5 -5.2 -8.5 -21.5 0 -19.6 1.3 -20.6 29.3 -20.7 l17.2 -0.1 0 4 0 4 -16.6 0 c-9.5 0 -17.4 0.4 -18.5 1 -1.4 0.8 -1.9 2.1 -1.9 5 l0 4 18 0 18 0 0 3.5 0 3.5 -18 0 -18 0 0 3.8 c0 2.1 0.5 4.3 1.2 5 0.8 0.8 6.4 1.2 18.5 1.2 l17.3 0 0 4 0 4 -18.2 -0.1 c-10.1 0 -19 -0.3 -19.8 -0.6z"/>
  <path d="M291.1 277.8 c4.5 -8.5 24.7 -39.2 26.5 -40.5 1.5 -1 3.4 -1.2 5.3 -0.8 2.7 0.6 4.7 3.3 16.1 21.5 7.1 11.4 13 21 13 21.4 0 0.3 -2.4 0.6 -5.3 0.6 l-5.2 0 -8.8 -14.5 c-13.2 -21.5 -10.5 -21.3 -22.1 -2 l-9.9 16.5 -5.4 0 c-5.3 0 -5.3 0 -4.2 -2.2z"/>
  <path d="M367.3 278.5 c-5.5 -2.4 -6.3 -5.3 -6.3 -24.5 l0 -17 4.5 0 4.5 0 0 15.3 c0 20.8 -1 19.7 18 19.7 9.1 0 15.1 0.4 15.5 1 0.4 0.6 0.4 2.4 0 4 l-0.7 3 -16.1 0 c-11.5 -0.1 -17.1 -0.5 -19.4 -1.5z"/>
 </g>
 <g fill="#2c8e81">
  <path d="M261.8 305.3 c1.2 -0.2 3 -0.2 4 0 0.9 0.3 -0.1 0.5 -2.3 0.4 -2.2 0 -3 -0.2 -1.7 -0.4z"/>
  <path d="M309.5 305.1 c-0.6 -1.1 0.9 -2.3 1.9 -1.4 0.9 0.9 0.7 2.3 -0.3 2.3 -0.6 0 -1.2 -0.4 -1.6 -0.9z"/>
  <path d="M323 305.6 c0 -0.2 1.8 -0.6 3.9 -0.8 2.2 -0.2 3.7 0 3.5 0.4 -0.5 0.8 -7.4 1.1 -7.4 0.4z"/>
  <path d="M340.4 304.6 c-0.3 -0.7 -0.3 -3.5 -0.1 -6.2 l0.3 -4.9 0.2 5.7 c0.2 5.4 0.3 5.7 3 6.1 l2.7 0.4 -2.8 0.2 c-1.5 0 -3 -0.5 -3.3 -1.3z"/>
  <path d="M311 279.4 c0 -0.3 0.8 -1.9 1.7 -3.5 1.5 -2.6 2.1 -2.8 5.8 -2.3 2.2 0.3 4.6 0.7 5.3 1 0.6 0.2 1.2 -0.1 1.2 -0.6 0 -2.2 3 -0.8 4.5 2 0.8 1.6 1.5 3.1 1.5 3.5 0 0.3 -4.5 0.5 -10 0.5 -5.5 0 -10 -0.3 -10 -0.6z"/>
  <path d="M59.3 272.3 c0.9 -0.2 2.5 -0.2 3.5 0 0.9 0.3 0.1 0.5 -1.8 0.5 -1.9 0 -2.7 -0.2 -1.7 -0.5z"/>
  <path d="M82.3 272.3 c0.9 -0.2 2.5 -0.2 3.5 0 0.9 0.3 0.1 0.5 -1.8 0.5 -1.9 0 -2.7 -0.2 -1.7 -0.5z"/>
  <path d="M188.3 258.3 c3.7 -0.2 9.7 -0.2 13.5 0 3.7 0.2 0.6 0.3 -6.8 0.3 -7.4 0 -10.5 -0.1 -6.7 -0.3z"/>
  <path d="M190.7 209.9 c-6.7 -4.4 -15.1 -13.9 -18.6 -21.1 -3.8 -7.7 -6.4 -19.5 -5.9 -26.5 0.4 -4.6 0.2 -5.3 -1.4 -5.3 -2.9 0 -11.3 3.5 -16.2 6.8 -2.5 1.7 -4.6 2.7 -4.6 2.2 0 -1.8 12.1 -9.9 18.1 -12.1 3.2 -1.2 5.9 -2.7 5.9 -3.3 0 -2.2 6.2 -14.1 9.8 -18.9 3.4 -4.6 15.4 -14.7 17.3 -14.7 0.5 0 0.9 1 0.9 2.1 0 1.3 -2.4 4.6 -6.2 8.3 -5.6 5.5 -11.5 14.4 -13.2 20.2 -0.6 2 -0.2 2.1 7.1 2.7 9.5 0.6 11.3 1.3 11.3 4.1 0 2.1 -0.2 2.1 -8.9 1.2 -4.9 -0.5 -9.7 -0.6 -10.5 -0.3 -2.1 0.8 -2.2 15 -0.1 23 2.8 10.9 9.9 21.3 19.1 27.9 4.6 3.3 5.5 5.2 2.8 6.2 -0.9 0.3 -1.7 0.6 -1.8 0.6 -0.1 0 -2.3 -1.4 -4.9 -3.1z"/>
 </g>
 <g fill="#31a8a1">
  <path d="M311 279.4 c0 -1.3 7.2 -12.4 8 -12.4 0.5 0 1.5 -0.3 2.3 -0.6 1.1 -0.4 2.7 1.1 5.1 4.7 1.9 2.9 3.3 5.6 3 6 -0.8 1.4 -15.4 0.9 -15.4 -0.4 0 -0.7 -0.4 -0.6 -1 0.3 -0.6 0.9 -0.5 1.7 0.3 2.2 0.8 0.5 0.6 0.8 -0.5 0.8 -1 0 -1.8 -0.3 -1.8 -0.6z"/>
  <path d="M208.6 217.9 c-5.7 -1.3 -15.7 -6 -15 -7 0.3 -0.5 -0.1 -0.6 -0.9 -0.3 -0.8 0.3 -4.4 -2.4 -8.8 -6.7 l-7.4 -7.1 6.8 6.1 c3.7 3.3 7.5 6.1 8.4 6.1 1.3 0 1.3 -0.3 0.3 -1.5 -0.7 -0.8 -0.9 -1.5 -0.4 -1.5 0.4 0 -1 -1.9 -3.1 -4.2 l-4 -4.2 5 4.3 c6.4 5.6 7.4 6.6 5.6 5.6 -1 -0.5 -1.2 -0.4 -0.7 0.4 0.4 0.6 1.1 0.9 1.5 0.6 0.5 -0.2 3.5 0.8 6.7 2.4 8 4 16.7 5.5 27 4.8 4.7 -0.3 8.2 -0.2 7.9 0.3 -1.6 2.6 -20.6 3.8 -28.9 1.9z"/>
  <path d="M172 188.9 c-1.2 -2.3 -2 -4.3 -1.8 -4.5 0.3 -0.2 1.4 1.7 2.6 4.1 2.7 5.6 2 6 -0.8 0.4z"/>
  <path d="M168.6 180.4 c-0.4 -1.4 -0.5 -2.8 -0.3 -3.1 0.3 -0.2 0.8 0.8 1.1 2.3 0.4 1.4 0.5 2.8 0.3 3.1 -0.3 0.2 -0.8 -0.8 -1.1 -2.3z"/>
  <path d="M173.3 169 c0 -2.5 0.2 -3.5 0.4 -2.2 0.2 1.2 0.2 3.2 0 4.5 -0.2 1.2 -0.4 0.2 -0.4 -2.3z"/>
  <path d="M228.5 169.6 c-4.4 -1.9 -11.7 -5 -16.3 -7 -11.3 -4.9 -18.3 -6.5 -28.8 -6.8 l-8.8 -0.3 -0.7 3 c-0.6 2.9 -0.7 2.9 -0.8 0.4 -0.2 -4.2 1.9 -5.2 10.8 -4.8 5.6 0.3 7.7 0.1 7.4 -0.7 -0.5 -1.4 -5 -2.4 -10.9 -2.4 -2.3 0 -4.5 -0.4 -4.8 -0.8 -0.9 -1.5 15.9 0.7 23.9 3.1 27.1 8.1 32.5 10.1 32.5 11.9 0 1.3 0.8 1.8 2.5 1.8 2.1 0 2.5 0.5 2.5 3 0 1.7 -0.1 3 -0.2 3 -0.2 0 -3.9 -1.6 -8.3 -3.4z"/>
  <path d="M166.3 164.5 c0 -3.3 0.2 -4.5 0.4 -2.7 0.2 1.8 0.2 4.5 0 6 -0.2 1.5 -0.4 0 -0.4 -3.3z"/>
  <path d="M143.9 165.7 c1.9 -2 3.7 -3.6 4 -3.5 1.9 0.2 3.1 -0.3 2.6 -1.1 -0.3 -0.5 -0.1 -1.2 0.4 -1.5 0.5 -0.4 0.8 0.1 0.7 1 -0.3 1.8 -2.6 3.5 -3.8 2.8 -0.4 -0.3 -0.8 -0.1 -0.8 0.5 0 0.5 -1.5 2 -3.2 3.2 l-3.3 2.2 3.4 -3.6z"/>
  <path d="M161 157 c0.8 -0.5 2.6 -1 3.9 -1 3.2 0 2.4 0.6 -1.9 1.4 -2.5 0.4 -3.1 0.3 -2 -0.4z"/>
  <path d="M177 144.7 c0 -1.1 2.8 -6.4 5.9 -11.2 1.4 -2.2 2.7 -4.7 2.9 -5.5 0.4 -2 3.2 -4.1 4.6 -3.3 0.6 0.3 0.8 0.2 0.3 -0.2 -0.4 -0.5 0 -1.7 1 -2.7 2.6 -2.9 0.5 -2.1 -4.8 1.8 -2.7 2 -4.9 3.4 -4.9 3.1 0 -1.4 12.4 -9.5 18.5 -12.1 6.6 -2.8 7.8 -3 20 -3 8.4 -0.1 14 0.4 15.9 1.2 1.6 0.7 2.7 1.4 2.5 1.6 -0.2 0.2 -3.7 -0.2 -7.7 -0.7 -13 -1.9 -27.7 2.2 -38.2 10.6 -2.4 2 -4.9 3.3 -5.5 3 -0.5 -0.4 -0.7 -0.3 -0.3 0.2 0.5 0.5 -0.4 2.4 -1.9 4.3 -1.5 2 -3.9 5.8 -5.5 8.6 -1.5 2.8 -2.8 4.7 -2.8 4.3z"/>
  <path d="M174.7 135.9 c1 -1.7 2.4 -3.6 3.2 -4.2 0.8 -0.7 0.2 0.7 -1.4 3.1 -3.2 4.9 -4.5 5.7 -1.8 1.1z"/>
 </g>
 <g fill="#3ed9d6">
  <path d="M317.5 268.3 c1.5 -2.4 3.1 -4.3 3.5 -4.3 0.4 0 1.5 1.1 2.4 2.5 1.6 2.4 1.6 2.4 -2.2 3.1 -2 0.4 -4.3 1.2 -5.1 1.8 -0.8 0.6 -0.2 -0.8 1.4 -3.1z"/>
  <path d="M213.3 218.3 c0.9 -0.2 2.5 -0.2 3.5 0 0.9 0.3 0.1 0.5 -1.8 0.5 -1.9 0 -2.7 -0.2 -1.7 -0.5z"/>
  <path d="M234 216.3 c-0.9 -0.4 0.5 -1.1 3.5 -1.8 2.8 -0.7 5.9 -1.5 7 -1.9 1.1 -0.3 -0.2 0.5 -3 1.8 -5.5 2.7 -5.4 2.7 -7.5 1.9z"/>
  <path d="M248.1 176.4 c-10 -2.6 -13.1 -3.9 -13.1 -5.4 0 -1.6 5 -1.1 12 1 3.6 1.1 7.1 2 7.7 2 0.7 0 1.6 -1.8 1.9 -3.9 0.7 -4.4 0.7 -4.4 11.9 -5.6 3.3 -0.4 10.1 -2 15.1 -3.6 5 -1.6 9.4 -2.9 9.8 -2.9 0.3 0 0.6 3.8 0.6 8.4 0 9.6 0.5 9 -10.5 11.2 -11 2.2 -24.4 1.7 -35.4 -1.2z"/>
  <path d="M230.7 170.8 c-1.5 -0.5 -2.4 -1.4 -2 -2.1 0.4 -0.6 0 -0.8 -1.1 -0.4 -1.5 0.6 -1.5 0.4 -0.2 -2.1 1.3 -2.5 1.3 -2.7 -1.2 -4 -1.5 -0.7 -1.8 -1 -0.7 -0.6 4.6 1.3 15.2 3.4 18 3.4 4.7 0 7.5 1.1 7.5 2.8 0 1.3 -1.3 1.4 -8.5 0.8 -8.4 -0.6 -9.1 -0.4 -8.6 2.7 0 0.4 0 0.7 -0.1 0.6 -0.2 0 -1.5 -0.5 -3.1 -1.1z"/>
  <path d="M221 166.5 c-1.4 -0.8 -2 -1.4 -1.5 -1.4 0.6 0 2.1 0.6 3.5 1.4 1.4 0.8 2.1 1.4 1.5 1.4 -0.5 0 -2.1 -0.6 -3.5 -1.4z"/>
  <path d="M186.3 155.3 c0.9 -0.2 2.5 -0.2 3.5 0 0.9 0.3 0.1 0.5 -1.8 0.5 -1.9 0 -2.7 -0.2 -1.7 -0.5z"/>
  <path d="M265.1 139.7 c-0.6 -1.5 -2.3 -3.2 -3.8 -3.8 l-2.8 -1.1 3.1 -1.3 c2.1 -0.8 3.4 -2.3 3.9 -4.1 l0.8 -2.9 1.2 2.9 c0.7 1.6 2.5 3.4 4.1 4.1 l2.9 1.3 -2.7 1 c-1.5 0.6 -3.4 2.4 -4.2 3.9 l-1.4 2.8 -1.1 -2.8z"/>
  <path d="M241.8 116.3 c-1 -0.2 -1.8 -0.9 -1.8 -1.4 0 -0.6 1 -0.5 2.3 0.2 3.7 2 3.6 2.3 -0.5 1.2z"/>
  <path d="M232 113 c1.9 -1.3 3 -1.3 3 0 0 0.6 -1 1 -2.2 1 -1.9 0 -2 -0.2 -0.8 -1z"/>
 </g>
 <g fill="#3ccbc7">
  <path d="M317.8 268.5 c2.7 -3.2 3.5 -3.5 5.4 -1.8 2.4 2.1 1.6 3 -3.1 3.5 -3.9 0.3 -4 0.3 -2.3 -1.7z"/>
  <path d="M221.8 216.3 c1.8 -0.2 4.5 -0.2 6 0 1.5 0.2 0 0.4 -3.3 0.4 -3.3 0 -4.5 -0.2 -2.7 -0.4z"/>
  <path d="M235 216.1 c0 -0.5 1.2 -1.1 2.8 -1.4 1.5 -0.3 3.6 -0.8 4.7 -1.2 1.1 -0.3 0.2 0.3 -2 1.4 -4.6 2.2 -5.5 2.4 -5.5 1.2z"/>
  <path d="M253.5 177.5 c-0.5 -0.1 -5.4 -1.5 -10.7 -3 -5.4 -1.5 -9.5 -3.2 -9.2 -3.6 0.3 -0.5 -0.1 -0.6 -0.9 -0.3 -0.8 0.3 -2.2 -0.2 -3.1 -1.1 -0.9 -0.9 -2.1 -1.3 -2.7 -1 -0.6 0.4 -0.3 -0.7 0.5 -2.4 0.9 -1.7 1.8 -3.1 1.9 -3.1 0.1 0 3.7 0.7 8 1.5 4.3 0.8 11.7 1.5 16.4 1.5 6.7 0 8.3 0.3 7.6 1.3 -0.6 0.6 -1.3 2.9 -1.6 4.9 -0.4 2.9 -0.2 4 1.1 4.8 1.3 0.7 0.8 0.9 -2.3 0.9 -2.2 0 -4.4 -0.2 -5 -0.4z"/>
  <path d="M173.3 163 c0 -3 0.2 -4.3 0.4 -2.7 0.2 1.5 0.2 3.9 0 5.5 -0.2 1.5 -0.4 0.2 -0.4 -2.8z"/>
  <path d="M265.6 139.4 c-0.5 -2.1 -1.6 -3.4 -3.4 -4.1 l-2.7 -1 2.7 -0.7 c1.6 -0.5 3.1 -1.8 3.6 -3.4 l1 -2.7 0.7 2.7 c0.4 1.7 1.7 3 3.3 3.6 l2.7 0.9 -2.3 0.7 c-1.3 0.5 -3 2.2 -3.7 3.9 l-1.3 3 -0.6 -2.9z"/>
  <path d="M238.1 114.9 c-1.3 -0.5 -2.2 -1.2 -1.9 -1.5 0.3 -0.3 2.1 0.2 3.9 1 3.7 1.6 1.9 2.1 -2 0.5z"/>
 </g>
</svg>